<svg width="900" height="500" viewBox="0 0 900 500" fill="none" xmlns="http://www.w3.org/2000/svg">
<g clip-path="url(#clip0_2521_361)">
<rect width="900" height="500" fill="#084625"/>
<path d="M634.011 259.453C634.011 270.089 625.274 272.57 618.132 272.57C609.114 272.57 606.05 269.809 606.05 265.731C606.05 261.654 609.114 259.259 618.132 259.259C623.488 259.376 628.834 258.736 634.011 257.36V259.453ZM661.39 288.73C659.43 281.322 658.551 273.671 658.779 266.012V244.157C658.779 225.365 646.676 213.434 620.311 213.434C598.327 213.434 583.634 222.754 580.851 239.949H606.201C607.367 235.138 611.293 232.355 620.311 232.355C629.33 232.355 634.162 234.836 634.162 239.216C634.162 243.596 629.071 246.055 620.311 246.055H614.939C591.919 246.055 580.118 254.361 580.118 269.507C580.118 283.056 591.337 290.93 605.597 290.93C623.526 290.93 630.236 284.458 634.313 277.662C634.537 281.399 635.123 285.106 636.061 288.73H661.39ZM547.281 288.73H572.027V189.098H547.324L547.281 288.73ZM494.639 269.075C484.455 269.075 475.998 262.603 475.998 252.182C475.998 241.762 484.455 235.289 494.639 235.289C504.822 235.289 513.279 241.762 513.279 252.182C513.279 262.603 504.887 269.075 494.682 269.075H494.639ZM451.273 317.877H476.041V278.547H476.624C480.55 284.372 487.994 290.93 503.29 290.93C522.707 290.93 539.967 276.217 539.967 251.729C539.967 227.566 522.341 213.434 503.29 213.434C487.994 213.434 480.27 219.907 476.624 226.53H476.041V216.347H451.273V317.877ZM399.494 269.075C387.844 269.075 380.854 262.603 380.854 252.182C380.854 241.762 387.844 235.289 399.494 235.289C411.145 235.289 418.135 241.762 418.135 252.182C418.135 262.603 411.058 269.075 399.408 269.075H399.494ZM399.494 290.93C422.363 290.93 444.801 278.698 444.801 252.096C444.801 225.494 422.363 213.262 399.494 213.262C376.625 213.262 354.187 225.494 354.187 252.096C354.187 278.698 376.539 290.93 399.408 290.93H399.494ZM287.306 266.896C270.693 266.896 255.116 255.224 255.116 237.468C255.116 220.209 270.413 208.774 287.306 208.774C304.199 208.774 319.495 220.273 319.495 237.468C319.578 242.378 318.584 247.246 316.583 251.729C306.529 239.216 295.288 227.479 281.178 227.479H280.013V253.693H280.898C287.37 253.693 293.131 258.655 299.085 265.494C295.194 266.521 291.178 266.993 287.155 266.896H287.306ZM349.506 282.193C344.112 282.193 339.02 278.547 333.907 273.304C338.637 268.623 342.378 263.038 344.905 256.881C347.433 250.725 348.697 244.123 348.621 237.468C348.621 206.293 321.674 184.74 287.306 184.74C252.937 184.74 225.969 206.314 225.969 237.468C225.969 269.226 253.218 290.93 287.306 290.93C296.73 290.969 306.074 289.204 314.835 285.731C324.436 297.662 335.072 308.449 348.621 308.449H351.253V282.193H349.506Z" fill="#fcdfb2"/>
</g>
<defs>
<clipPath id="clip0_2521_361">
<rect width="900" height="500" fill="transparent"/>
</clipPath>
</defs>
</svg>
